<svg width="24" height="24" viewBox="0 0 24 24" fill="none" xmlns="http://www.w3.org/2000/svg">
<g clip-path="url(#clip0_271_5261)">
<path fill-rule="evenodd" clip-rule="evenodd" d="M11.7891 0.351562C13.0861 0.343751 14.3829 0.351563 15.6797 0.374999C15.8094 0.453887 15.8876 0.571073 15.9141 0.726562C15.7043 1.17749 15.4699 1.61499 15.211 2.03906C15.4657 2.44993 15.7001 2.87181 15.9141 3.30469C15.8963 3.44722 15.8339 3.56441 15.7266 3.65625C14.6058 3.72563 13.4808 3.74907 12.3516 3.72656C12.3516 4.17969 12.3516 4.63281 12.3516 5.08594C14.3361 5.07811 16.3204 5.08594 18.3047 5.10937C18.413 5.18611 18.4833 5.28769 18.5157 5.41406C18.5391 6.99211 18.5469 8.57025 18.5391 10.1484C19.758 10.1406 20.9767 10.1484 22.1954 10.1719C22.268 10.2288 22.3226 10.2991 22.3594 10.3828C22.3829 14.539 22.3907 18.6953 22.3829 22.8516C22.7009 22.8319 23.0133 22.8553 23.3204 22.9219C23.5079 23.1719 23.4766 23.3906 23.2266 23.5781C15.7266 23.6094 8.22661 23.6094 0.726614 23.5781C0.476616 23.3906 0.445364 23.1719 0.632864 22.9219C0.939877 22.8553 1.25238 22.8319 1.57036 22.8516C1.56255 18.6953 1.57036 14.539 1.5938 10.3828C1.63058 10.2991 1.68526 10.2288 1.75786 10.1719C2.97652 10.1484 4.19527 10.1406 5.41411 10.1484C5.40629 8.57025 5.41411 6.99211 5.43755 5.41406C5.4699 5.28769 5.54021 5.18611 5.64849 5.10937C7.6328 5.08594 9.61716 5.07811 11.6016 5.08594C11.5938 3.57023 11.6016 2.05461 11.6251 0.539062C11.6574 0.452332 11.7121 0.389832 11.7891 0.351562ZM12.3516 1.10156C13.1643 1.09375 13.9768 1.10157 14.7891 1.125C14.6014 1.41453 14.4451 1.71922 14.3204 2.03906C14.4579 2.33761 14.6142 2.62667 14.7891 2.90625C13.9768 2.92968 13.1643 2.9375 12.3516 2.92969C12.3516 2.32031 12.3516 1.71094 12.3516 1.10156ZM6.21099 5.88281C10.0547 5.88281 13.8985 5.88281 17.7422 5.88281C17.7422 7.30467 17.7422 8.72658 17.7422 10.1484C13.8985 10.1484 10.0547 10.1484 6.21099 10.1484C6.21099 8.72658 6.21099 7.30467 6.21099 5.88281ZM2.36724 10.9453C4.85161 10.9453 7.33599 10.9453 9.82036 10.9453C9.81254 12.211 9.82036 13.4767 9.8438 14.7422C10.0016 14.9817 10.2125 15.0364 10.4766 14.9062C10.5329 14.8639 10.572 14.8093 10.5938 14.7422C10.6172 13.4767 10.6251 12.211 10.6172 10.9453C10.9454 10.9453 11.2735 10.9453 11.6016 10.9453C11.5938 12.5079 11.6016 14.0704 11.6251 15.6328C11.8594 15.8828 12.0938 15.8828 12.3282 15.6328C12.3516 14.0704 12.3594 12.5079 12.3516 10.9453C12.6797 10.9453 13.0079 10.9453 13.336 10.9453C13.3282 12.211 13.336 13.4767 13.3594 14.7422C13.5172 14.9817 13.7281 15.0364 13.9922 14.9062C14.0485 14.8639 14.0876 14.8093 14.1094 14.7422C14.1329 13.4767 14.1407 12.211 14.1329 10.9453C16.6172 10.9453 19.1016 10.9453 21.586 10.9453C21.586 14.9141 21.586 18.8828 21.586 22.8516C19.2735 22.8516 16.961 22.8516 14.6485 22.8516C14.6563 21.1015 14.6485 19.3515 14.6251 17.6016C14.5883 17.5178 14.5336 17.4475 14.461 17.3906C12.8048 17.3594 11.1485 17.3594 9.49224 17.3906C9.41963 17.4475 9.36497 17.5178 9.32818 17.6016C9.30474 19.3515 9.29691 21.1015 9.30474 22.8516C6.99225 22.8516 4.67974 22.8516 2.36724 22.8516C2.36724 18.8828 2.36724 14.9141 2.36724 10.9453ZM10.1016 18.1172C10.6016 18.1172 11.1016 18.1172 11.6016 18.1172C11.6016 19.6953 11.6016 21.2734 11.6016 22.8516C11.1016 22.8516 10.6016 22.8516 10.1016 22.8516C10.1016 21.2734 10.1016 19.6953 10.1016 18.1172ZM12.3516 18.1172C12.8516 18.1172 13.3516 18.1172 13.8516 18.1172C13.8516 19.6953 13.8516 21.2734 13.8516 22.8516C13.3516 22.8516 12.8516 22.8516 12.3516 22.8516C12.3516 21.2734 12.3516 19.6953 12.3516 18.1172Z" fill="#B1BBCA"/>
<path fill-rule="evenodd" clip-rule="evenodd" d="M7.10157 6.53907C7.94546 6.53124 8.78921 6.53907 9.63282 6.56251C9.68753 6.61721 9.74218 6.67187 9.79689 6.72657C9.82815 7.57032 9.82815 8.41407 9.79689 9.25782C9.77509 9.3249 9.736 9.37955 9.6797 9.42188C8.85465 9.49805 8.02656 9.51371 7.19532 9.46876C7.01275 9.42502 6.91117 9.30783 6.89064 9.11719C6.85937 8.3828 6.85937 7.64846 6.89064 6.91407C6.91178 6.76041 6.98209 6.63544 7.10157 6.53907ZM7.66407 7.33594C7.66407 7.78908 7.66407 8.24218 7.66407 8.69532C8.11721 8.69532 8.57031 8.69532 9.02345 8.69532C9.02345 8.24218 9.02345 7.78908 9.02345 7.33594C8.57031 7.33594 8.11721 7.33594 7.66407 7.33594Z" fill="#B1BBCA"/>
<path fill-rule="evenodd" clip-rule="evenodd" d="M10.7109 6.53907C11.5548 6.53124 12.3986 6.53907 13.2422 6.56251C13.2969 6.61721 13.3515 6.67187 13.4062 6.72657C13.4375 7.57032 13.4375 8.41407 13.4062 9.25782C13.3844 9.3249 13.3454 9.37955 13.2891 9.42188C12.464 9.49805 11.6359 9.51371 10.8047 9.46876C10.7189 9.45596 10.6486 9.41687 10.5937 9.35157C10.5169 8.48082 10.5012 7.6058 10.5469 6.72657C10.6114 6.67008 10.666 6.6076 10.7109 6.53907ZM11.3203 7.33594C11.3203 7.78908 11.3203 8.24218 11.3203 8.69532C11.7578 8.69532 12.1953 8.69532 12.6328 8.69532C12.6328 8.24218 12.6328 7.78908 12.6328 7.33594C12.1953 7.33594 11.7578 7.33594 11.3203 7.33594Z" fill="#B1BBCA"/>
<path fill-rule="evenodd" clip-rule="evenodd" d="M14.3203 6.53907C15.1642 6.53124 16.0079 6.53907 16.8516 6.56251C16.9063 6.61721 16.9609 6.67187 17.0156 6.72657C17.091 7.52096 17.1066 8.31783 17.0625 9.11719C17.0383 9.23598 16.9836 9.33751 16.8984 9.42188C16.0734 9.49805 15.2453 9.51371 14.4141 9.46876C14.3283 9.45596 14.258 9.41687 14.2031 9.35157C14.1262 8.48082 14.1106 7.6058 14.1562 6.72657C14.2207 6.67008 14.2754 6.6076 14.3203 6.53907ZM14.9297 7.33594C14.9297 7.78908 14.9297 8.24218 14.9297 8.69532C15.3828 8.69532 15.8359 8.69532 16.2891 8.69532C16.2891 8.24218 16.2891 7.78908 16.2891 7.33594C15.8359 7.33594 15.3828 7.33594 14.9297 7.33594Z" fill="#B1BBCA"/>
<path fill-rule="evenodd" clip-rule="evenodd" d="M3.53907 12.1641C5.07038 12.1562 6.60164 12.1641 8.13282 12.1875C8.2344 12.2266 8.30471 12.2969 8.34375 12.3984C8.37502 15.3828 8.37502 18.3672 8.34375 21.3516C8.30471 21.4531 8.2344 21.5235 8.13282 21.5625C6.60155 21.5938 5.07033 21.5938 3.53907 21.5625C3.45535 21.5257 3.38504 21.4711 3.32813 21.3984C3.25069 18.4474 3.23507 15.4943 3.28125 12.5391C3.30421 12.3682 3.39015 12.2431 3.53907 12.1641ZM4.05469 12.9609C4.05469 13.4141 4.05469 13.8672 4.05469 14.3203C4.50782 14.3203 4.96093 14.3203 5.41407 14.3203C5.41407 13.8672 5.41407 13.4141 5.41407 12.9609C4.96093 12.9609 4.50782 12.9609 4.05469 12.9609ZM6.21094 12.9609C6.21094 13.4141 6.21094 13.8672 6.21094 14.3203C6.66408 14.3203 7.11718 14.3203 7.57032 14.3203C7.57032 13.8672 7.57032 13.4141 7.57032 12.9609C7.11718 12.9609 6.66408 12.9609 6.21094 12.9609ZM4.05469 15.1172C4.05469 15.5703 4.05469 16.0234 4.05469 16.4766C4.50782 16.4766 4.96093 16.4766 5.41407 16.4766C5.41407 16.0234 5.41407 15.5703 5.41407 15.1172C4.96093 15.1172 4.50782 15.1172 4.05469 15.1172ZM6.21094 15.1172C6.21094 15.5703 6.21094 16.0234 6.21094 16.4766C6.66408 16.4766 7.11718 16.4766 7.57032 16.4766C7.57032 16.0234 7.57032 15.5703 7.57032 15.1172C7.11718 15.1172 6.66408 15.1172 6.21094 15.1172ZM4.05469 17.2734C4.05469 17.7266 4.05469 18.1797 4.05469 18.6328C4.50782 18.6328 4.96093 18.6328 5.41407 18.6328C5.41407 18.1797 5.41407 17.7266 5.41407 17.2734C4.96093 17.2734 4.50782 17.2734 4.05469 17.2734ZM6.21094 17.2734C6.21094 17.7266 6.21094 18.1797 6.21094 18.6328C6.66408 18.6328 7.11718 18.6328 7.57032 18.6328C7.57032 18.1797 7.57032 17.7266 7.57032 17.2734C7.11718 17.2734 6.66408 17.2734 6.21094 17.2734ZM4.05469 19.4297C4.05469 19.8828 4.05469 20.3359 4.05469 20.7891C4.50782 20.7891 4.96093 20.7891 5.41407 20.7891C5.41407 20.3359 5.41407 19.8828 5.41407 19.4297C4.96093 19.4297 4.50782 19.4297 4.05469 19.4297ZM6.21094 19.4297C6.21094 19.8828 6.21094 20.3359 6.21094 20.7891C6.66408 20.7891 7.11718 20.7891 7.57032 20.7891C7.57032 20.3359 7.57032 19.8828 7.57032 19.4297C7.11718 19.4297 6.66408 19.4297 6.21094 19.4297Z" fill="#B1BBCA"/>
<path fill-rule="evenodd" clip-rule="evenodd" d="M15.6328 12.1641C17.1641 12.1562 18.6954 12.1641 20.2266 12.1875C20.3103 12.2243 20.3806 12.279 20.4375 12.3516C20.4688 15.3672 20.4688 18.3828 20.4375 21.3984C20.3806 21.4711 20.3103 21.5257 20.2266 21.5625C18.6953 21.5938 17.1641 21.5938 15.6328 21.5625C15.5491 21.5257 15.4788 21.4711 15.4219 21.3984C15.3906 18.3828 15.3906 15.3672 15.4219 12.3516C15.4874 12.278 15.5577 12.2154 15.6328 12.1641ZM16.1953 12.9609C16.1953 13.4141 16.1953 13.8672 16.1953 14.3203C16.6328 14.3203 17.0703 14.3203 17.5078 14.3203C17.5078 13.8672 17.5078 13.4141 17.5078 12.9609C17.0703 12.9609 16.6328 12.9609 16.1953 12.9609ZM18.3047 12.9609C18.3047 13.4141 18.3047 13.8672 18.3047 14.3203C18.7578 14.3203 19.2109 14.3203 19.6641 14.3203C19.6641 13.8672 19.6641 13.4141 19.6641 12.9609C19.2109 12.9609 18.7578 12.9609 18.3047 12.9609ZM16.1953 15.1172C16.1953 15.5703 16.1953 16.0234 16.1953 16.4766C16.6328 16.4766 17.0703 16.4766 17.5078 16.4766C17.5078 16.0234 17.5078 15.5703 17.5078 15.1172C17.0703 15.1172 16.6328 15.1172 16.1953 15.1172ZM18.3047 15.1172C18.3047 15.5703 18.3047 16.0234 18.3047 16.4766C18.7578 16.4766 19.2109 16.4766 19.6641 16.4766C19.6641 16.0234 19.6641 15.5703 19.6641 15.1172C19.2109 15.1172 18.7578 15.1172 18.3047 15.1172ZM16.1953 17.2734C16.1953 17.7266 16.1953 18.1797 16.1953 18.6328C16.6328 18.6328 17.0703 18.6328 17.5078 18.6328C17.5078 18.1797 17.5078 17.7266 17.5078 17.2734C17.0703 17.2734 16.6328 17.2734 16.1953 17.2734ZM18.3047 17.2734C18.3047 17.7266 18.3047 18.1797 18.3047 18.6328C18.7578 18.6328 19.2109 18.6328 19.6641 18.6328C19.6641 18.1797 19.6641 17.7266 19.6641 17.2734C19.2109 17.2734 18.7578 17.2734 18.3047 17.2734ZM16.1953 19.4297C16.1953 19.8828 16.1953 20.3359 16.1953 20.7891C16.6328 20.7891 17.0703 20.7891 17.5078 20.7891C17.5078 20.3359 17.5078 19.8828 17.5078 19.4297C17.0703 19.4297 16.6328 19.4297 16.1953 19.4297ZM18.3047 19.4297C18.3047 19.8828 18.3047 20.3359 18.3047 20.7891C18.7578 20.7891 19.2109 20.7891 19.6641 20.7891C19.6641 20.3359 19.6641 19.8828 19.6641 19.4297C19.2109 19.4297 18.7578 19.4297 18.3047 19.4297Z" fill="#B1BBCA"/>
</g>
<defs>
<clipPath id="clip0_271_5261">
<rect width="24" height="24" fill="white"/>
</clipPath>
</defs>
</svg>
