<svg width="24" height="24" viewBox="0 0 24 24" fill="none" xmlns="http://www.w3.org/2000/svg">
<g clip-path="url(#clip0_21_1040)">
<path fill-rule="evenodd" clip-rule="evenodd" d="M23.9766 2.88281C23.9766 6.02344 23.9766 9.16406 23.9766 12.3047C23.5579 13.6484 22.636 14.289 21.2109 14.2266C21.2188 15.586 21.2109 16.9454 21.1875 18.3047C21.0548 18.5833 20.8439 18.6692 20.5547 18.5625C19.8437 17.7891 19.1328 17.0156 18.4219 16.2422C18.3001 17.4102 17.683 18.168 16.5703 18.5156C14.1653 18.5667 11.7591 18.6135 9.35156 18.6563C8.03803 20.1103 6.70992 21.5478 5.36719 22.9688C5.11233 23.0463 4.91705 22.976 4.78125 22.7578C4.75781 21.3829 4.74998 20.0079 4.75781 18.6328C3.92954 18.6406 3.10141 18.6328 2.27344 18.6094C1.49168 18.5505 0.858872 18.2146 0.375 17.6016C0.192619 17.322 0.0598064 17.0252 -0.0234375 16.7109C-0.0234375 13.5703 -0.0234375 10.4297 -0.0234375 7.28906C0.263828 6.22861 0.951328 5.5958 2.03906 5.39063C3.21083 5.36719 4.38271 5.35936 5.55469 5.36719C5.54686 4.57016 5.55469 3.77328 5.57812 2.97656C5.79563 1.91534 6.42844 1.25128 7.47656 0.984376C12.2734 0.953125 17.0703 0.953125 21.8672 0.984376C22.9807 1.16856 23.6839 1.80137 23.9766 2.88281ZM7.61719 1.80469C12.3203 1.79687 17.0235 1.80469 21.7266 1.82813C22.4484 1.92501 22.9094 2.32345 23.1094 3.02344C23.1406 6.07031 23.1406 9.11719 23.1094 12.1641C22.8964 12.8762 22.4198 13.2747 21.6797 13.3594C21.3203 13.375 20.961 13.3906 20.6016 13.4063C20.5345 13.428 20.4798 13.4671 20.4375 13.5234C20.3759 14.7068 20.3446 15.8943 20.3438 17.0859C19.7031 16.3828 19.0625 15.6797 18.4219 14.9766C18.4063 12.4453 18.3906 9.91406 18.375 7.38281C18.1051 6.1598 17.3473 5.48011 16.1016 5.34375C12.8674 5.35777 9.633 5.36555 6.39844 5.36719C6.39061 4.61702 6.39844 3.86702 6.42188 3.11719C6.56911 2.44669 6.96755 2.00919 7.61719 1.80469ZM15.2109 6.16406C15.8049 6.10706 16.3674 6.20864 16.8984 6.46875C17.2469 6.7388 17.4578 7.09036 17.5312 7.52344C17.5625 10.4766 17.5625 13.4297 17.5312 16.3828C17.3985 17.1406 16.9531 17.586 16.1953 17.7188C13.7883 17.7217 11.382 17.7529 8.97656 17.8125C7.86202 19.021 6.74484 20.232 5.625 21.4453C5.60939 20.3203 5.59373 19.1953 5.57812 18.0703C5.54602 17.9505 5.4757 17.8645 5.36719 17.8125C4.24085 17.8086 3.11585 17.7773 1.99219 17.7188C1.39063 17.5547 1.00781 17.1719 0.84375 16.5703C0.812498 13.5234 0.812498 10.4766 0.84375 7.42969C1.03784 6.75127 1.48315 6.35283 2.17969 6.23438C6.53128 6.22655 10.875 6.20311 15.2109 6.16406Z" fill="#B1BBCA"/>
<path fill-rule="evenodd" clip-rule="evenodd" d="M3.77343 9.35157C5.63287 9.34374 7.49226 9.35157 9.35156 9.37501C9.56976 9.5108 9.64008 9.70608 9.5625 9.96094C9.48576 10.0692 9.38418 10.1395 9.25781 10.1719C7.47656 10.2031 5.69531 10.2031 3.91406 10.1719C3.59737 10.0659 3.4958 9.85491 3.60937 9.53907C3.67385 9.48258 3.72854 9.4201 3.77343 9.35157Z" fill="#B1BBCA"/>
<path fill-rule="evenodd" clip-rule="evenodd" d="M3.82031 11.7422C7.38286 11.7344 10.9454 11.7422 14.5078 11.7656C14.7699 11.8782 14.8559 12.0736 14.7656 12.3516C14.7081 12.4559 14.6221 12.5262 14.5078 12.5625C10.9453 12.5938 7.38281 12.5938 3.82031 12.5625C3.45424 12.2876 3.45424 12.0142 3.82031 11.7422Z" fill="#B1BBCA"/>
<path fill-rule="evenodd" clip-rule="evenodd" d="M3.86718 14.1328C7.39846 14.125 10.9297 14.1328 14.4609 14.1563C14.7654 14.2428 14.867 14.4381 14.7656 14.7422C14.7109 14.8281 14.6406 14.8984 14.5547 14.9531C10.9766 14.9844 7.39842 14.9844 3.82031 14.9531C3.54833 14.7793 3.49364 14.5527 3.65624 14.2734C3.73366 14.2313 3.80398 14.1844 3.86718 14.1328Z" fill="#B1BBCA"/>
</g>
<defs>
<clipPath id="clip0_21_1040">
<rect width="24" height="24" fill="white"/>
</clipPath>
</defs>
</svg>
