<svg width="24" height="24" viewBox="0 0 24 24" fill="none" xmlns="http://www.w3.org/2000/svg">
<g clip-path="url(#clip0_21_998)">
<path fill-rule="evenodd" clip-rule="evenodd" d="M23.9766 12.4453C23.9766 12.8203 23.9766 13.1953 23.9766 13.5703C23.6406 14.922 22.7969 15.7814 21.4453 16.1484C20.1403 19.7113 17.6403 21.9222 13.9453 22.7812C9.82209 23.4282 6.47053 22.1235 3.89062 18.8672C3.29434 18.0341 2.83341 17.1278 2.50781 16.1484C1.15629 15.7814 0.312539 14.922 -0.0234375 13.5703C-0.0234375 13.1953 -0.0234375 12.8203 -0.0234375 12.4453C0.302974 11.0877 1.14672 10.2439 2.50781 9.91406C3.32849 7.46091 4.85972 5.59373 7.10156 4.3125C5.62416 3.68612 4.85855 2.56893 4.80469 0.960938C5.28905 0.960938 5.77345 0.960938 6.25781 0.960938C6.29208 1.88091 6.72956 2.52935 7.57031 2.90625C7.92253 3.01412 8.28192 3.04537 8.64844 3C8.2238 2.38754 8.02069 1.70785 8.03906 0.960938C8.52342 0.960938 9.00783 0.960938 9.49219 0.960938C9.54928 2.05723 10.1118 2.73691 11.1797 3C14.9587 2.88588 17.9665 4.3312 20.2031 7.33594C20.7427 8.13389 21.1567 8.99325 21.4453 9.91406C22.8064 10.2439 23.6502 11.0877 23.9766 12.4453ZM11.5078 4.47656C13.1275 4.40917 14.0494 5.17481 14.2734 6.77344C14.1164 8.14922 13.3508 8.91483 11.9766 9.07031C10.5801 8.90817 9.81441 8.12691 9.67969 6.72656C9.19533 6.72656 8.71092 6.72656 8.22656 6.72656C8.2942 8.35505 9.05981 9.51909 10.5234 10.2187C12.1973 10.8061 13.6427 10.4546 14.8594 9.16406C15.7621 7.96898 15.9419 6.67214 15.3984 5.27344C15.414 5.25783 15.4297 5.24217 15.4453 5.22656C18.0595 6.46584 19.6845 8.49708 20.3203 11.3203C21.8216 11.2046 22.5481 11.8921 22.5 13.3828C22.1234 14.388 21.3968 14.8255 20.3203 14.6953C19.6114 17.6775 17.8457 19.7635 15.0234 20.9531C11.961 22.0104 9.14845 21.5572 6.58594 19.5937C5.03325 18.3096 4.04889 16.6768 3.63281 14.6953C2.55456 14.8247 1.82799 14.3872 1.45312 13.3828C1.40499 11.8921 2.13155 11.2046 3.63281 11.3203C4.27786 8.47997 5.91848 6.44091 8.55469 5.20312C9.507 4.80487 10.4914 4.56268 11.5078 4.47656Z" fill="#B1BBCA"/>
<path fill-rule="evenodd" clip-rule="evenodd" d="M7.61719 10.9453C8.93864 10.885 9.80583 11.4788 10.2188 12.7266C10.2576 12.9125 10.281 13.1 10.2891 13.2891C9.8047 13.2891 9.3203 13.2891 8.83594 13.2891C8.77359 12.758 8.47669 12.4611 7.94531 12.3985C7.4137 12.4613 7.1168 12.7582 7.05469 13.2891C6.57033 13.2891 6.08592 13.2891 5.60156 13.2891C5.70516 12.0139 6.37702 11.2327 7.61719 10.9453Z" fill="#B1BBCA"/>
<path fill-rule="evenodd" clip-rule="evenodd" d="M15.6797 10.9454C16.8465 10.8684 17.6824 11.3528 18.1875 12.3985C18.2875 12.6874 18.3421 12.9843 18.3516 13.2892C17.8672 13.2892 17.3828 13.2892 16.8984 13.2892C16.8363 12.7583 16.5394 12.4614 16.0078 12.3985C15.4764 12.4612 15.1795 12.7581 15.1172 13.2892C14.6328 13.2892 14.1484 13.2892 13.6641 13.2892C13.7678 12.0139 14.4397 11.2327 15.6797 10.9454Z" fill="#B1BBCA"/>
<path fill-rule="evenodd" clip-rule="evenodd" d="M9.72656 16.1483C9.78164 16.1381 9.82852 16.1537 9.86719 16.1952C10.7057 17.3313 11.7838 17.636 13.1016 17.1093C13.5127 16.8544 13.8642 16.5341 14.1562 16.1483C14.5811 16.3724 14.9952 16.6146 15.3984 16.8749C14.2438 18.5829 12.6657 19.161 10.6641 18.6093C9.76172 18.2691 9.05859 17.6909 8.55469 16.8749C8.9483 16.6315 9.33895 16.3893 9.72656 16.1483Z" fill="#B1BBCA"/>
</g>
<defs>
<clipPath id="clip0_21_998">
<rect width="24" height="24" fill="white"/>
</clipPath>
</defs>
</svg>
