<svg width="24" height="24" viewBox="0 0 24 24" fill="none" xmlns="http://www.w3.org/2000/svg">
<g clip-path="url(#clip0_20_948)">
<path fill-rule="evenodd" clip-rule="evenodd" d="M23.9766 9.96096C23.9766 10.1328 23.9766 10.3047 23.9766 10.4766C23.7393 10.8603 23.4112 10.9618 22.9922 10.7813C19.3398 8.08413 15.6757 5.40447 12 2.74221C8.30034 5.39299 4.62067 8.07264 0.960938 10.7813C0.541945 10.9618 0.213821 10.8603 -0.0234375 10.4766C-0.0234375 10.3047 -0.0234375 10.1328 -0.0234375 9.96096C0.0593386 9.8545 0.153089 9.75297 0.257812 9.65627C4.05222 6.90874 7.83347 4.14313 11.6016 1.35939C11.9182 1.19075 12.2151 1.222 12.4922 1.45314C16.2182 4.19897 19.9526 6.93335 23.6953 9.65627C23.8 9.75297 23.8938 9.8545 23.9766 9.96096Z" fill="#F8FAFC"/>
<path fill-rule="evenodd" clip-rule="evenodd" d="M3.07031 10.8515C3.53963 10.8003 3.81307 11.0034 3.89062 11.4609C3.91406 14.7733 3.92188 18.0858 3.91406 21.3984C5.55469 21.3984 7.19531 21.3984 8.83594 21.3984C8.82811 19.4608 8.83594 17.5233 8.85937 15.5859C9.07256 14.3413 9.76791 13.4898 10.9453 13.0312C12.3503 12.6381 13.53 12.9897 14.4844 14.0859C14.8161 14.5496 15.0192 15.0652 15.0938 15.6327C15.1172 17.5546 15.125 19.4764 15.1172 21.3984C16.7578 21.3984 18.3984 21.3984 20.0391 21.3984C20.0312 18.0858 20.0391 14.7733 20.0625 11.4609C20.1145 11.0808 20.3332 10.8777 20.7188 10.8515C21.0286 10.8732 21.2317 11.0294 21.3281 11.3202C21.3594 14.9609 21.3594 18.6015 21.3281 22.2421C21.2325 22.4941 21.0528 22.6426 20.7891 22.6874C18.6484 22.7187 16.5078 22.7187 14.3672 22.6874C14.043 22.6287 13.8632 22.4334 13.8281 22.1015C13.8272 19.8806 13.796 17.6619 13.7344 15.4452C13.2522 14.3517 12.4319 13.9689 11.2734 14.2968C10.7586 14.5304 10.407 14.9132 10.2187 15.4452C10.1572 17.6775 10.1259 19.9119 10.125 22.1484C10.0686 22.4547 9.88894 22.6345 9.58594 22.6874C7.4453 22.7187 5.3047 22.7187 3.16406 22.6874C2.90031 22.6426 2.72062 22.4941 2.625 22.2421C2.59375 18.6015 2.59375 14.9609 2.625 11.3202C2.68828 11.0774 2.83671 10.9211 3.07031 10.8515Z" fill="#F8FAFC"/>
</g>
<defs>
<clipPath id="clip0_20_948">
<rect width="24" height="24" fill="white"/>
</clipPath>
</defs>
</svg>
