<svg width="24" height="24" viewBox="0 0 24 24" fill="none" xmlns="http://www.w3.org/2000/svg">
<path fill-rule="evenodd" clip-rule="evenodd" d="M11.3203 1.47656C13.6406 1.30773 15.2735 2.27647 16.2188 4.38281C16.8999 6.69918 16.2515 8.53513 14.2734 9.89062C12.9341 10.5813 11.5591 10.6595 10.1484 10.125C8.04844 9.02652 7.18908 7.29998 7.57032 4.94531C8.11777 3.02262 9.36779 1.86636 11.3203 1.47656ZM11.9297 2.97656C13.5161 3.09383 14.5083 3.92195 14.9063 5.46093C15.0744 6.8196 14.5823 7.85868 13.4297 8.57812C12.0217 9.23563 10.7795 9.00909 9.70313 7.89843C8.96086 6.91992 8.82024 5.8574 9.28125 4.71093C9.85046 3.64882 10.7333 3.0707 11.9297 2.97656Z" fill="#B1BBCA"/>
<path fill-rule="evenodd" clip-rule="evenodd" d="M10.8984 11.9766C14.135 11.7719 17.0412 12.6391 19.6172 14.5781C20.4519 15.2405 21.1316 16.0295 21.6562 16.9453C22.6521 19.2425 21.9725 20.8128 19.6172 21.6563C17.9057 22.1671 16.1557 22.4328 14.3672 22.4531C12.7734 22.4844 11.1797 22.4844 9.58593 22.4531C7.84846 22.4293 6.14535 22.1794 4.47656 21.7031C2.02599 20.9037 1.29943 19.3178 2.29687 16.9453C3.17091 15.5244 4.33497 14.4072 5.78906 13.5938C7.39152 12.7184 9.09468 12.1793 10.8984 11.9766ZM11.9297 13.4766C14.5745 13.5272 16.9182 14.3787 18.9609 16.0313C21.4978 18.4249 21.0603 19.9406 17.6484 20.5781C15.7686 20.8562 13.8779 20.989 11.9766 20.9766C10.2671 20.9788 8.56392 20.8773 6.86718 20.6719C5.82895 20.561 4.86018 20.2486 3.96093 19.7344C3.38578 19.2823 3.23735 18.7121 3.51562 18.0235C3.92452 17.1453 4.51046 16.4031 5.27343 15.7969C7.24518 14.3193 9.46392 13.5459 11.9297 13.4766Z" fill="#B1BBCA"/>
</svg>
