<svg width="24" height="24" viewBox="0 0 24 24" fill="none" xmlns="http://www.w3.org/2000/svg">
<g clip-path="url(#clip0_21_1020)">
<path fill-rule="evenodd" clip-rule="evenodd" d="M4.33594 -0.0234375C4.52344 -0.0234375 4.71094 -0.0234375 4.89844 -0.0234375C5.08495 0.0616317 5.21775 0.202257 5.29688 0.398438C5.32031 0.726192 5.32809 1.05432 5.32031 1.38281C6.16406 1.38281 7.00781 1.38281 7.85156 1.38281C7.84378 1.05432 7.85156 0.726192 7.875 0.398438C7.95412 0.202257 8.08692 0.0616317 8.27344 -0.0234375C8.46094 -0.0234375 8.64844 -0.0234375 8.83594 -0.0234375C9.02245 0.0616317 9.15525 0.202257 9.23438 0.398438C9.25781 0.726192 9.26559 1.05432 9.25781 1.38281C10.1016 1.38281 10.9453 1.38281 11.7891 1.38281C11.7813 1.05432 11.7891 0.726192 11.8125 0.398438C11.8916 0.202257 12.0244 0.0616317 12.2109 -0.0234375C12.3984 -0.0234375 12.5859 -0.0234375 12.7734 -0.0234375C12.96 0.0616317 13.0927 0.202257 13.1719 0.398438C13.1953 0.726192 13.2031 1.05432 13.1953 1.38281C14.0391 1.38281 14.8828 1.38281 15.7266 1.38281C15.7188 1.05432 15.7266 0.726192 15.75 0.398438C15.8291 0.202257 15.9619 0.0616317 16.1484 -0.0234375C16.3359 -0.0234375 16.5234 -0.0234375 16.7109 -0.0234375C16.8975 0.0616317 17.0303 0.202257 17.1094 0.398438C17.1328 0.726192 17.1406 1.05432 17.1328 1.38281C17.758 1.375 18.383 1.38282 19.0078 1.40625C20.0938 1.67969 20.7735 2.35937 21.0469 3.44531C21.0547 6.64856 21.0781 9.85167 21.1172 13.0547C22.7272 14.0558 23.6804 15.4933 23.9766 17.3672C23.9766 17.8672 23.9766 18.3672 23.9766 18.8672C23.6554 20.8212 22.6398 22.2978 20.9297 23.2969C20.2747 23.6399 19.5872 23.8665 18.8672 23.9766C18.3672 23.9766 17.8672 23.9766 17.3672 23.9766C15.0741 23.5822 13.4803 22.3088 12.5859 20.1562C8.92969 20.1406 5.27344 20.125 1.61719 20.1094C0.76492 19.8743 0.218046 19.3352 -0.0234375 18.4922C-0.0234375 13.4766 -0.0234375 8.46094 -0.0234375 3.44531C0.264943 2.3679 0.952444 1.68821 2.03906 1.40625C2.66387 1.38282 3.28887 1.375 3.91406 1.38281C3.90627 1.05432 3.91408 0.726192 3.9375 0.398438C4.01662 0.202257 4.14943 0.0616317 4.33594 -0.0234375ZM2.55469 2.78906C3.00781 2.78906 3.46094 2.78906 3.91406 2.78906C3.90627 3.11756 3.91408 3.44568 3.9375 3.77344C4.17899 4.19413 4.53055 4.31131 4.99219 4.125C5.10938 4.07031 5.1953 3.98438 5.25 3.86719C5.31712 3.51308 5.34056 3.15371 5.32031 2.78906C6.16406 2.78906 7.00781 2.78906 7.85156 2.78906C7.84378 3.11756 7.85156 3.44568 7.875 3.77344C8.1165 4.19413 8.46806 4.31131 8.92969 4.125C9.04688 4.07031 9.1328 3.98438 9.1875 3.86719C9.25463 3.51308 9.27806 3.15371 9.25781 2.78906C10.1016 2.78906 10.9453 2.78906 11.7891 2.78906C11.7813 3.11756 11.7891 3.44568 11.8125 3.77344C12.054 4.19413 12.4056 4.31131 12.8672 4.125C12.9844 4.07031 13.0703 3.98438 13.125 3.86719C13.1921 3.51308 13.2156 3.15371 13.1953 2.78906C14.0391 2.78906 14.8828 2.78906 15.7266 2.78906C15.7188 3.11756 15.7266 3.44568 15.75 3.77344C15.9915 4.19413 16.3431 4.31131 16.8047 4.125C16.9219 4.07031 17.0078 3.98438 17.0625 3.86719C17.1296 3.51308 17.1531 3.15371 17.1328 2.78906C17.6973 2.77323 18.2598 2.79667 18.8203 2.85938C19.3383 3.04363 19.6117 3.41081 19.6406 3.96094C19.6641 4.66389 19.6719 5.367 19.6641 6.07031C13.5703 6.07031 7.47656 6.07031 1.38281 6.07031C1.36427 5.25605 1.38771 4.44353 1.45312 3.63281C1.64774 3.11837 2.01493 2.83712 2.55469 2.78906ZM1.38281 7.47656C7.47656 7.47656 13.5703 7.47656 19.6641 7.47656C19.6719 9.13289 19.6641 10.7891 19.6406 12.4453C17.0539 11.8722 14.9445 12.6222 13.3125 14.6953C12.4786 15.9086 12.1271 17.2524 12.2578 18.7266C8.86716 18.7344 5.47655 18.7266 2.08594 18.7031C1.67188 18.6641 1.44531 18.4375 1.40625 18.0234C1.38281 14.5079 1.375 10.9922 1.38281 7.47656ZM18.0703 13.6641C19.9655 13.7561 21.3327 14.6468 22.1719 16.3359C22.9505 18.5114 22.4427 20.316 20.6484 21.75C18.9609 22.8437 17.2734 22.8437 15.5859 21.75C13.8703 20.3996 13.3313 18.673 13.9688 16.5703C14.7467 14.7688 16.1138 13.8001 18.0703 13.6641Z" fill="#B1BBCA"/>
<path fill-rule="evenodd" clip-rule="evenodd" d="M7.66407 9.21094C8.17993 9.20312 8.69555 9.21094 9.21094 9.23438C9.65232 9.40608 9.81638 9.72638 9.70313 10.1953C9.6128 10.4263 9.44874 10.5747 9.21094 10.6406C8.69532 10.6719 8.17969 10.6719 7.66407 10.6406C7.22269 10.4689 7.05863 10.1486 7.17188 9.67969C7.2706 9.44799 7.43466 9.29176 7.66407 9.21094Z" fill="#B1BBCA"/>
<path fill-rule="evenodd" clip-rule="evenodd" d="M11.8359 9.21094C12.3518 9.20312 12.8674 9.21094 13.3828 9.23438C13.8242 9.40608 13.9883 9.72638 13.875 10.1953C13.7847 10.4263 13.6206 10.5747 13.3828 10.6406C12.8672 10.6719 12.3516 10.6719 11.8359 10.6406C11.3946 10.4689 11.2305 10.1486 11.3438 9.67969C11.4425 9.44799 11.6065 9.29176 11.8359 9.21094Z" fill="#B1BBCA"/>
<path fill-rule="evenodd" clip-rule="evenodd" d="M16.0078 9.21094C16.5237 9.20312 17.0393 9.21094 17.5547 9.23438C17.9961 9.40608 18.1601 9.72638 18.0469 10.1953C17.9566 10.4263 17.7925 10.5747 17.5547 10.6406C17.0391 10.6719 16.5234 10.6719 16.0078 10.6406C15.5664 10.4689 15.4024 10.1486 15.5156 9.67969C15.6143 9.44799 15.7784 9.29176 16.0078 9.21094Z" fill="#B1BBCA"/>
<path fill-rule="evenodd" clip-rule="evenodd" d="M3.39843 12.3984C3.97677 12.3906 4.5549 12.3984 5.13281 12.4219C5.52726 12.6257 5.66006 12.946 5.53125 13.3828C5.46093 13.5781 5.32814 13.7109 5.13281 13.7813C4.55469 13.8125 3.97656 13.8125 3.39843 13.7813C2.97774 13.5398 2.86056 13.1882 3.04687 12.7266C3.14131 12.5901 3.2585 12.4807 3.39843 12.3984Z" fill="#B1BBCA"/>
<path fill-rule="evenodd" clip-rule="evenodd" d="M7.57031 12.3984C8.14865 12.3906 8.72676 12.3984 9.30468 12.4219C9.69914 12.6257 9.83193 12.946 9.70312 13.3828C9.63281 13.5781 9.50001 13.7109 9.30468 13.7813C8.72658 13.8125 8.14842 13.8125 7.57031 13.7813C7.14961 13.5398 7.03242 13.1882 7.21875 12.7266C7.3132 12.5901 7.43039 12.4807 7.57031 12.3984Z" fill="#B1BBCA"/>
<path fill-rule="evenodd" clip-rule="evenodd" d="M11.7422 12.3984C12.3205 12.3906 12.8986 12.3984 13.4766 12.4219C13.871 12.6257 14.0038 12.946 13.875 13.3828C13.8047 13.5781 13.6719 13.7109 13.4766 13.7813C12.8985 13.8125 12.3203 13.8125 11.7422 13.7813C11.3215 13.5398 11.2043 13.1882 11.3906 12.7266C11.4851 12.5901 11.6023 12.4807 11.7422 12.3984Z" fill="#B1BBCA"/>
<path fill-rule="evenodd" clip-rule="evenodd" d="M17.8359 15.0703C18.2729 14.9648 18.5932 15.1055 18.7969 15.4921C18.8203 16.1326 18.8281 16.7732 18.8203 17.414C19.4611 17.4062 20.1017 17.414 20.7422 17.4374C21.1366 17.6413 21.2694 17.9616 21.1406 18.3984C21.0703 18.5937 20.9375 18.7265 20.7422 18.7968C19.7734 18.8281 18.8047 18.8281 17.8359 18.7968C17.6406 18.7265 17.5078 18.5937 17.4375 18.3984C17.4062 17.4296 17.4062 16.4609 17.4375 15.4921C17.5166 15.296 17.6494 15.1553 17.8359 15.0703Z" fill="#B1BBCA"/>
<path fill-rule="evenodd" clip-rule="evenodd" d="M3.49219 15.5391C4.00805 15.5312 4.52368 15.5391 5.03907 15.5625C5.48044 15.7342 5.6445 16.0545 5.53125 16.5234C5.44093 16.7544 5.27686 16.9029 5.03907 16.9688C4.52344 17 4.00782 17 3.49219 16.9688C3.05082 16.7971 2.88675 16.4768 3 16.0078C3.09872 15.7761 3.26278 15.6199 3.49219 15.5391Z" fill="#B1BBCA"/>
<path fill-rule="evenodd" clip-rule="evenodd" d="M7.66407 15.5391C8.17993 15.5312 8.69555 15.5391 9.21094 15.5625C9.65232 15.7342 9.81638 16.0545 9.70313 16.5234C9.6128 16.7544 9.44874 16.9029 9.21094 16.9688C8.69532 17 8.17969 17 7.66407 16.9688C7.22269 16.7971 7.05863 16.4768 7.17188 16.0078C7.2706 15.7761 7.43466 15.6199 7.66407 15.5391Z" fill="#B1BBCA"/>
</g>
<defs>
<clipPath id="clip0_21_1020">
<rect width="24" height="24" fill="white"/>
</clipPath>
</defs>
</svg>
